<svg height="512pt" viewBox="-17 0 512 512.00093" width="512pt" xmlns="http://www.w3.org/2000/svg"><path d="m433.773438 243.449219c0-27.460938-22.257813-49.722657-49.71875-49.722657h-289.105469c-27.460938 0-49.722657 22.261719-49.722657 49.722657v112.359375h388.546876zm0 0" fill="#fff"/><path d="m45.226562 404.773438v47.503906c0 27.460937 22.261719 49.722656 49.722657 49.722656h289.101562c27.460938 0 49.722657-22.261719 49.722657-49.722656v-47.503906" fill="#ff5d5d"/><path d="m396.121094 404.773438h37.652344v-48.960938h-388.546876v48.960938h249.1875" fill="#ffc66c"/><path d="m347.128906 414.769531c-.648437 0-1.308594-.058593-1.957031-.1875-.632813-.132812-1.261719-.320312-1.871094-.570312-.601562-.25-1.179687-.5625-1.71875-.921875-.550781-.367188-1.0625-.789063-1.523437-1.25-.457032-.460938-.878906-.96875-1.25-1.519532-.359375-.539062-.65625-1.117187-.90625-1.71875-.25-.609374-.453125-1.242187-.582032-1.871093-.128906-.648438-.191406-1.308594-.191406-1.960938 0-.648437.0625-1.308593.191406-1.949219.128907-.640624.332032-1.269531.570313-1.867187.25-.609375.558594-1.191406.917969-1.730469.371094-.550781.792968-1.0625 1.25-1.519531.460937-.460937.972656-.882813 1.523437-1.242187.539063-.359376 1.117188-.667969 1.71875-.917969.609375-.25 1.238281-.441407 1.871094-.570313 1.289063-.261718 2.617187-.261718 3.910156 0 .636719.128906 1.269531.320313 1.867188.570313.609375.25 1.191406.558593 1.730469.917969.550781.359374 1.0625.78125 1.519531 1.242187.460937.457031.882812.96875 1.242187 1.519531.359375.539063.667969 1.121094.917969 1.730469.25.597656.441406 1.226563.570313 1.867187.128906.640626.199218 1.300782.199218 1.949219 0 .652344-.070312 1.3125-.199218 1.960938-.128907.628906-.320313 1.261719-.570313 1.871093-.25.601563-.558594 1.179688-.917969 1.71875-.359375.550782-.78125 1.0625-1.242187 1.519532-1.859375 1.871094-4.4375 2.929687-7.070313 2.929687zm0 0"/><path d="m94.949219 231.382812c-6.652344 0-12.066407 5.414063-12.066407 12.066407v112.363281h156.617188v-124.429688zm0 0" fill="#c2e8f7"/><path d="m396.121094 243.449219c0-6.652344-5.414063-12.066407-12.070313-12.066407h-144.550781v124.429688h156.621094zm0 0" fill="#c2e8f7"/><path d="m280 193.726562h-81v-26.984374c0-9.667969 7.835938-17.5 17.5-17.5h46c9.664062 0 17.5 7.832031 17.5 17.5zm0 0" fill="#ffc66c"/><path d="m267.453125 73.90625c0 15.4375-12.511719 27.949219-27.949219 27.949219s-27.949218-12.511719-27.949218-27.949219c0-15.433594 12.511718-27.949219 27.949218-27.949219s27.949219 12.515625 27.949219 27.949219zm0 0" fill="#6d6f8d"/><path d="m478.683594 7.503906c-1.382813-5.347656-6.832032-8.566406-12.183594-7.183594l-196.691406 50.765626c-6.933594-9.183594-17.9375-15.128907-30.304688-15.128907-19.125 0-34.996094 14.222657-37.582031 32.648438l-194.417969 50.179687c-5.347656 1.378906-8.5625 6.832032-7.183594 12.179688 1.164063 4.511718 5.222657 7.503906 9.675782 7.503906.828125 0 1.667968-.101562 2.507812-.320312l192.007813-49.554688c4.484375 10.648438 13.695312 18.835938 24.988281 21.925781v28.722657h-13c-15.164062 0-27.5 12.335937-27.5 27.5v16.988281h-94.050781c-32.929688 0-59.722657 26.789062-59.722657 59.71875v208.828125c0 32.933594 26.792969 59.722656 59.722657 59.722656h289.101562c32.933594 0 59.722657-26.789062 59.722657-59.722656v-208.828125c0-32.929688-26.789063-59.722657-59.722657-59.722657h-94.050781v-16.984374c0-15.164063-12.335938-27.5-27.5-27.5h-13v-28.722657c16.09375-4.394531 27.953125-19.144531 27.953125-36.613281 0-1.378906-.074219-2.742188-.21875-4.082031l194.265625-50.136719c5.347656-1.378906 8.5625-6.835938 7.183594-12.183594zm-94.632813 484.496094h-289.101562c-21.902344 0-39.722657-17.820312-39.722657-39.722656v-37.503906h239.1875c5.523438 0 10-4.480469 10-10 0-5.523438-4.476562-10-10-10h-239.1875v-28.964844h368.546876v28.964844h-27.652344c-5.523438 0-10 4.476562-10 10 0 5.519531 4.476562 10 10 10h27.652344v37.503906c0 21.902344-17.816407 39.722656-39.722657 39.722656zm-134.550781-250.617188h134.550781c1.140625 0 2.070313.925782 2.070313 2.066407v102.359375h-136.621094zm-20 104.425782h-136.617188v-102.359375c0-1.140625.925782-2.066407 2.066407-2.066407h134.550781zm194.273438-102.359375v102.359375h-17.652344v-102.359375c0-12.167969-9.898438-22.066407-22.066406-22.066407h-289.105469c-12.167969 0-22.066407 9.898438-22.066407 22.066407v102.359375h-17.65625v-102.359375c0-21.902344 17.820313-39.722657 39.722657-39.722657h289.101562c21.90625 0 39.722657 17.820313 39.722657 39.722657zm-153.773438-76.707031v16.984374h-61v-16.984374c0-4.136719 3.367188-7.5 7.5-7.5h46c4.136719 0 7.5 3.363281 7.5 7.5zm-30.496094-74.886719c-9.898437 0-17.949218-8.050781-17.949218-17.949219s8.050781-17.949219 17.949218-17.949219c9.898438 0 17.953125 8.050781 17.953125 17.949219s-8.054687 17.949219-17.953125 17.949219zm0 0"/></svg>